<?xml version="1.0" standalone="no"?>
<!DOCTYPE svg PUBLIC "-//W3C//DTD SVG 20010904//EN"
 "http://www.w3.org/TR/2001/REC-SVG-20010904/DTD/svg10.dtd">
<svg version="1.0" xmlns="http://www.w3.org/2000/svg"
 width="300.000000pt" height="300.000000pt" viewBox="0 0 300.000000 300.000000"
 preserveAspectRatio="xMidYMid meet">
<metadata>
Created by potrace 1.10, written by Peter Selinger 2001-2011
</metadata>
<g transform="translate(0.000000,300.000000) scale(0.100000,-0.100000)"
fill="#000000" stroke="none">
<path d="M635 1651 c-80 -37 -115 -110 -94 -194 29 -118 183 -163 276 -82 l28
24 -21 21 -21 21 -34 -20 c-47 -29 -103 -28 -134 3 -45 45 -45 107 0 152 31
31 87 32 134 3 l34 -20 21 21 21 21 -28 24 c-27 24 -85 45 -122 45 -11 0 -38
-9 -60 -19z"/>
<path d="M1174 1659 c-18 -5 -47 -26 -67 -48 -64 -71 -59 -170 12 -234 45 -40
94 -52 153 -36 144 38 160 248 24 310 -45 20 -74 22 -122 8z m118 -88 c27 -24
33 -36 33 -71 0 -35 -6 -47 -33 -71 -44 -40 -93 -40 -133 0 -62 62 -20 171 65
171 25 0 45 -9 68 -29z"/>
<path d="M890 1500 l0 -160 75 0 75 0 0 36 0 36 -42 -4 -43 -3 0 128 0 127
-32 0 -33 0 0 -160z"/>
<path d="M1440 1531 c0 -123 1 -131 25 -159 31 -38 81 -48 130 -28 52 22 65
61 65 201 l0 115 -35 0 -35 0 0 -119 c0 -128 -7 -146 -52 -139 -22 3 -23 6
-26 131 l-3 127 -34 0 -35 0 0 -129z"/>
<path d="M1720 1499 l0 -162 85 5 c73 4 89 8 111 29 43 40 57 76 52 141 -7
103 -63 148 -180 148 l-68 0 0 -161z m158 68 c17 -16 22 -31 22 -69 0 -62 -24
-88 -80 -88 l-40 0 0 88 c0 49 3 91 6 95 11 11 69 -5 92 -26z"/>
<path d="M2000 1624 l0 -36 50 4 c28 1 50 0 50 -3 0 -3 -24 -60 -54 -127 l-54
-122 102 0 102 0 -4 36 -4 36 -44 -5 c-24 -2 -45 -3 -47 0 -3 2 20 58 49 124
30 66 54 122 54 125 0 2 -45 4 -100 4 l-100 0 0 -36z"/>
<path d="M2261 1568 c44 -84 48 -100 49 -160 l0 -68 33 0 33 0 -4 64 c-4 62
-2 69 46 160 l50 96 -37 0 c-35 0 -39 -3 -61 -50 -13 -27 -26 -50 -30 -50 -4
0 -17 23 -30 50 -22 47 -26 50 -60 50 l-37 0 48 -92z"/>
</g>
</svg>
